<svg xmlns="http://www.w3.org/2000/svg" width="126" height="31" viewBox="0 0 126 31" fill="none">
	<g clip-path="url(#clip0_83_1222)">
		<path
			d="M125.609 29.7117C125.086 28.098 124.3 26.4762 123.631 24.9279C120.321 17.2494 116.97 9.59264 113.65 1.93318C113.458 1.48888 113.493 0.954627 112.951 0.6875H0.453856C-0.143439 0.75837 0.303163 1.53522 0.462076 1.93591C0.659348 2.43473 0.966216 2.94718 1.17719 3.44327C4.71712 11.8142 8.39405 20.1442 11.9723 28.4932C12.397 29.48 12.3751 30.5021 13.6738 30.6875L125.579 30.6602C126.141 30.2786 125.727 30.0715 125.609 29.7117ZM30.757 24.9552C29.82 25.0233 28.8473 24.9252 27.9021 24.8952C27.576 24.8843 27.1924 25.1133 26.7897 24.8707C26.4198 24.6472 25.9293 22.6764 25.6444 22.5892C25.3649 22.6164 25.0772 22.5129 24.8197 22.502C23.047 22.4093 21.1866 22.5401 19.4221 22.5565C19.0248 22.5592 18.7563 22.3957 18.2741 22.5429C17.6713 22.7309 17.3069 24.3201 17.0466 24.8843H12.7669C12.682 24.0339 13.1834 23.1562 13.5368 22.3684C15.8712 17.1758 18.444 12.1276 20.7482 6.88866C20.8003 6.84778 20.9647 6.61881 20.9811 6.61336C21.1948 6.54521 22.2305 6.55067 22.488 6.59155C23.1155 6.68968 23.3127 8.05803 23.721 8.50778C25.5567 12.6019 27.4472 16.726 29.4008 20.891C29.8364 21.8205 30.6721 23.058 30.968 24.0502C31.0529 24.3364 31.1461 24.9279 30.757 24.9552ZM122.469 28.864L35.2011 28.8122C34.9436 28.6977 34.223 26.9368 34.0449 26.5389C30.5652 18.7295 27.4171 10.7702 23.8881 2.98261C23.7977 2.8436 23.8224 2.33115 23.9813 2.33115H111.666C111.97 2.39657 112.326 3.33424 112.474 3.65588C116.206 11.6697 119.297 20.0215 122.982 28.0707C123.173 28.7549 123.179 28.8231 122.469 28.864Z"
			fill="#868686" />
		<path
			d="M65.0329 6.49023C68.0933 9.28416 70.9072 12.3016 73.9759 15.0819C74.1074 15.2018 74.1047 15.5289 74.3896 15.3109L74.4882 6.72738C74.5595 6.58836 74.6691 6.59109 74.8006 6.57746C75.8335 6.46298 77.3514 6.57746 78.4392 6.58836C78.5926 6.58836 79.3187 6.43027 79.3187 6.72193V24.9302C79.3187 24.9302 79.1899 25.0692 79.1789 25.0692H77.6884C77.5432 25.0692 75.8007 23.3519 75.5349 23.0957C73.6005 21.2585 71.7182 19.2742 69.7921 17.4288C69.4414 17.0935 68.8742 16.5102 68.5208 16.2404C68.4276 16.1695 68.403 16.0632 68.2413 16.1014V24.9274C68.2413 24.9274 68.1125 25.0665 68.1016 25.0665H63.4465C63.4465 25.0665 63.3068 24.9384 63.3068 24.9274V6.72193C63.3068 6.69194 63.4301 6.58291 63.3999 6.49023H65.0302H65.0329Z"
			fill="#868686" />
		<path
			d="M47.3935 6.72268C47.4949 6.40104 48.0593 6.60002 48.2785 6.59185C51.528 6.49917 54.8679 6.59457 58.1503 6.58639C58.7339 6.58639 58.964 6.28656 59.0353 7.08521C59.1065 7.88387 59.1257 9.63927 59.0353 10.4216C59.0188 10.5551 59.0243 10.6642 58.8846 10.7323L52.3856 10.7623C52.3198 10.7759 52.1417 10.9449 52.1417 10.9722V13.33C52.2321 13.3 52.3445 13.4227 52.3746 13.4227H58.3311C58.3311 13.4227 58.4709 13.5508 58.4709 13.5617V17.4432C58.4709 17.4432 58.3421 17.5822 58.3311 17.5822H52.2815C52.2815 17.5822 52.1417 17.7103 52.1417 17.7212V20.6787C52.1417 20.6787 52.2705 20.8177 52.2815 20.8177H59.0764C59.0764 20.8177 59.2161 20.9458 59.2161 20.9567V24.9309C59.2161 24.9309 59.0873 25.0699 59.0764 25.0699H47.5332C47.5332 25.0699 47.3935 24.9418 47.3935 24.9309V6.72268Z"
			fill="#868686" />
		<path
			d="M91.5139 10.8352V24.9303C91.5139 24.9303 91.3852 25.0693 91.3742 25.0693H86.9986C86.9685 25.0693 86.8561 24.9466 86.7657 24.9766V11.0669C86.7657 11.026 86.5986 10.7753 86.5246 10.7589L82.2038 10.7425V6.72201C82.2038 6.34857 84.0286 6.58572 84.2943 6.58844C87.9411 6.62115 91.6865 6.41399 95.2922 6.57482C95.9306 6.60207 96.0074 6.26135 96.0786 7.27262C96.1334 8.05492 96.1663 9.57591 96.0786 10.3282C96.0649 10.4536 95.958 10.8352 95.843 10.8352H91.5139Z"
			fill="#868686" />
		<path
			d="M109.899 24.9777C109.452 24.885 109.271 23.8438 108.942 23.5221C108.972 23.3531 108.616 22.6335 108.488 22.5899L101.145 22.5681L100.999 22.6335L99.8898 24.9368L95.6073 24.9804C95.5361 24.4762 95.7059 24.0319 95.895 23.5739C95.9251 23.5003 96.032 23.5003 96.0621 23.4267C98.1938 18.3731 100.706 13.3032 102.997 8.42401C103.169 8.05603 103.611 6.78036 103.846 6.58683C104.063 6.40965 105.633 6.45054 105.8 6.67678L108.789 13.2296C110.197 16.0317 111.463 18.9237 112.792 21.824C113.228 22.7753 113.765 23.6802 114.132 24.6615C114.17 24.7596 114.063 24.9777 113.992 24.9777H109.896H109.899ZM102.824 18.7847H106.641C106.693 18.7847 106.849 18.6484 106.967 18.692L106.948 18.4822C106.235 17.2174 105.827 15.6228 105.12 14.3799C105.027 14.2163 104.896 13.9165 104.687 13.8838L102.709 18.2995C102.646 18.4385 102.673 18.7357 102.827 18.782L102.824 18.7847Z"
			fill="#868686" />
		<path
			d="M44.4153 10.7426L40.004 10.8298C39.9629 10.8407 39.8533 11.1324 39.8533 11.1596V25.0693H35.338C35.338 25.0693 35.1983 24.9412 35.1983 24.9303V11.067C35.1983 11.037 35.075 10.9279 35.1051 10.8353H30.9624C30.935 10.8353 30.7076 10.6908 30.6829 10.6499C30.4446 10.2601 30.7651 7.47165 30.6364 6.81473C30.6501 6.65391 30.7706 6.58031 30.9131 6.53125L44.4125 6.62938V10.7426H44.4153Z"
			fill="#868686" />
		<path
			d="M23.7044 18.6932H19.9809C19.8878 18.666 19.8028 18.4943 19.8521 18.388L21.7481 14.0703C21.9317 14.0703 22.0687 14.3729 22.1427 14.5119C22.7509 15.6622 23.1373 17.0796 23.8031 18.2244C23.8962 18.3471 23.8277 18.6932 23.7044 18.6932Z"
			fill="#868686" />
	</g>
	<defs>
		<clipPath id="clip0_83_1222">
			<rect width="125.714" height="30" fill="white" transform="translate(0.152344 0.6875)" />
		</clipPath>
	</defs>
</svg>