<svg xmlns="http://www.w3.org/2000/svg" width="91" height="35" viewBox="0 0 91 35" fill="none">
	<g clip-path="url(#clip0_83_1210)">
		<path
			d="M68.0317 28.4782C71.8364 24.6524 75.8157 20.7976 79.3088 16.6715C80.9584 14.723 82.662 12.6857 82.3668 9.90188C82.2233 8.54647 81.0672 7.46981 79.763 7.33605C75.8998 6.94037 74.6459 10.4323 74.9658 13.7717L68.3644 14.3236L68.2273 14.1833C68.0061 9.52584 69.3121 4.83195 73.3353 2.25583C78.6297 -1.13411 88.6081 -0.238916 89.9178 7.22286C90.9176 12.9205 87.866 17.1588 84.4223 21.1521C82.3668 23.5346 80.1012 25.7346 77.9845 28.0573L90.4926 27.7785V34.4995H68.0326V28.4782H68.0317Z"
			fill="#ffffff" />
		<path
			d="M65.4754 3.22852V8.96914L54.3364 10.3227V16.4833L63.8313 15.7368V21.4307L54.3364 22.0378V28.8981L65.4754 28.5248V34.4993H48.0366V5.65497L65.4754 3.22852Z"
			fill="#ffffff" />
		<path
			d="M28.4061 13.2157L20.0061 14.2428V19.5634L27.1284 19.0966V23.6708L20.0061 24.044V29.925L28.2553 29.7528L28.4061 29.8782V34.4991H15.2591V10.3225L28.4061 8.5957V13.2157Z"
			fill="#ffffff" />
		<path
			d="M36.1673 7.33594V29.3658L45.9364 29.1797C45.9811 29.2133 45.845 29.2985 45.845 29.319V34.4994H30.7796V8.08333L36.1664 7.33687L36.1673 7.33594Z"
			fill="#ffffff" />
		<path d="M13.1589 10.6953V15.4556L8.95934 15.8289V34.4987H4.4847V16.3892L0.285156 16.7624V12.4689L13.1589 10.6953Z"
			fill="#ffffff" />
	</g>
	<defs>
		<clipPath id="clip0_83_1210">
			<rect width="90.2066" height="34.1322" fill="white" transform="translate(0.285156 0.367188)" />
		</clipPath>
	</defs>
</svg>