<svg xmlns="http://www.w3.org/2000/svg" width="200" height="76" viewBox="0 0 200 76" fill="none">
	<g clip-path="url(#clip0_83_1133)">
		<mask id="mask0_83_1133" style="mask-type:luminance" maskUnits="userSpaceOnUse" x="0" y="0" width="200" height="76">
			<path d="M199.846 0.25H0.585938V75.9687H199.846V0.25Z" fill="white" />
		</mask>
		<g mask="url(#mask0_83_1133)">
			<path
				d="M83.3765 70.0032C82.5642 70.6302 81.3614 71.0321 79.565 71.0321H73.3479C71.5515 71.0321 70.1456 70.6141 69.5364 70.0032C68.7398 69.3923 68.3336 68.3474 68.3336 66.9166V60.7273C68.3336 59.4894 68.7398 58.4605 69.5364 57.6246C70.1456 57.0137 71.5359 56.5957 73.3479 56.5957H79.565C81.3614 56.5957 82.5642 57.0137 83.3765 57.6246C83.9701 58.4445 84.3762 59.4894 84.3762 60.7273V66.9166C84.3762 68.1545 83.9701 69.1833 83.3765 70.0032ZM80.1742 62.1581C80.1742 61.3382 79.9712 60.9202 79.7681 60.5022C79.3619 60.0842 78.7684 59.8913 77.5655 59.8913H75.1599C74.1602 59.8913 73.551 60.1003 73.1605 60.5022C72.7543 60.9202 72.7543 61.5311 72.7543 62.1581V65.4537C72.7543 66.2736 72.7543 66.6915 73.1605 67.1095C73.5666 67.5275 74.1602 67.7204 75.1599 67.7204H77.5655C78.7684 67.7204 79.3776 67.5114 79.7681 67.3024C79.9712 66.8844 80.1742 66.2736 80.1742 65.4537V62.1581Z"
				fill="#868686" />
			<path
				d="M101.809 70.0047C101.012 70.6317 99.8096 71.0336 97.9976 71.0336H91.7805C89.9841 71.0336 88.5782 70.6156 87.969 70.0047C87.1723 69.3938 86.7662 68.3489 86.7662 66.9181V60.7288C86.7662 59.4909 87.1723 58.462 87.969 57.6422C88.5626 57.0313 89.9685 56.6133 91.7805 56.6133H97.9976C99.794 56.6133 100.997 57.0313 101.809 57.6422C102.403 58.462 102.809 59.507 102.809 60.7288V62.1756H98.6068C98.6068 61.3557 98.4037 60.9378 97.9976 60.5198C97.7945 60.1018 96.9979 59.9089 95.9981 59.9089H93.5925C92.5928 59.9089 91.9836 60.1179 91.5931 60.5198C91.2025 60.9217 90.9995 61.5487 90.9995 62.1756V65.4712C90.9995 66.2911 91.2025 66.7091 91.5931 67.1271C91.9992 67.5451 92.5928 67.738 93.5925 67.738H95.9981C96.9979 67.738 97.7945 67.529 97.9976 67.32C98.4037 66.902 98.6068 66.2911 98.6068 65.4712H102.809V66.9181C102.809 68.156 102.403 69.1848 101.809 70.0047Z"
				fill="#868686" />
			<path
				d="M109.432 71.0321H105.23V56.5957H109.432V62.1581H117.055V56.5957H121.257V71.0321H117.055V65.4697H109.432V71.0321Z"
				fill="#868686" />
			<path
				d="M129.083 65.4712H127.88C127.88 66.2911 128.083 66.7091 128.286 67.1271C128.693 67.5451 129.489 67.738 130.489 67.738H139.502V71.0336H128.474C126.662 71.0336 125.459 70.6156 124.662 70.0047C124.053 69.3777 123.663 68.3489 123.663 66.9181V60.7288C123.663 59.4909 124.069 58.462 124.662 57.6422C125.459 57.0313 126.662 56.6133 128.474 56.6133H139.502V59.9089H130.489C129.489 59.9089 128.693 60.1179 128.286 60.5198C128.083 60.9378 127.88 61.5487 127.88 62.1756H139.502V65.4712H129.083Z"
				fill="#868686" />
			<path d="M171.775 59.8913H166.167V56.5957H182.007V59.8913H175.993V71.0321H171.775V59.8913Z" fill="#868686" />
			<path
				d="M162.356 59.2804H155.935V56.5957H151.718V59.2804H145.11C145.11 59.2804 141.299 59.2804 141.299 63.8139C141.299 68.3474 145.313 68.1545 145.313 68.1545H151.733V71.0482H155.951V68.1545H162.371C162.371 68.1545 166.183 68.1545 166.183 63.8139C166.183 59.4733 162.371 59.2804 162.371 59.2804M160.169 65.2607H155.967V62.1741H160.169C160.169 62.1741 161.575 62.1741 161.575 63.83C161.575 65.4858 160.169 65.2768 160.169 65.2768V65.2607ZM146.141 63.8139C146.141 62.1581 147.547 62.1581 147.547 62.1581H151.765V65.2447H147.547C147.547 65.2447 146.141 65.4537 146.141 63.7978V63.8139Z"
				fill="#868686" />
			<path
				d="M64.9283 57.6246C64.319 57.0137 62.9288 56.5957 61.1168 56.5957H50.0884V71.0321H54.3061V66.0806H61.1168C62.9288 66.0806 64.319 65.6627 64.9283 65.0518C65.7249 64.2319 65.928 63.203 65.928 61.9651V60.7273C65.928 59.4894 65.7249 58.4605 64.9283 57.6407M60.3201 62.8011H54.3061V59.9074H60.3201C61.1168 59.9074 61.726 60.5183 61.726 61.3542C61.726 62.1902 61.1168 62.8011 60.3201 62.8011Z"
				fill="#868686" />
			<path
				d="M199.846 66.901V65.6631C199.846 64.4252 199.439 63.3964 198.846 62.5604C198.049 61.9495 196.846 61.5315 195.034 61.5315H188.021V56.5801H183.803V71.0165H195.034C196.831 71.0165 198.034 70.5985 198.846 69.9876C199.455 69.1677 199.846 68.1388 199.846 66.901ZM195.644 66.274C195.644 67.0939 195.034 67.7209 194.238 67.7209H188.021V64.8271H194.238C195.034 64.8271 195.644 65.4541 195.644 66.274Z"
				fill="#868686" />
			<path d="M24.0329 42.5469H18.2219V71.0178H24.0329V42.5469Z" fill="#868686" />
			<path d="M30.6561 36.7578H24.8451V71H30.6561V36.7578Z" fill="#868686" />
			<path d="M37.0606 42.5469H31.4528V71.0178H37.0606V42.5469Z" fill="#868686" />
			<path d="M10.802 43.7848L5.39716 38.8333V24.3809H10.802V43.7848Z" fill="#868686" />
			<path d="M17.4252 50.1664L11.8173 44.6041V17.7891H17.4252V50.1664Z" fill="#868686" />
			<path d="M24.0329 11.3906H18.2219V41.9192H24.0329V11.3906Z" fill="#868686" />
			<path d="M30.6561 5.20117H24.8451V35.7298H30.6561V5.20117Z" fill="#868686" />
			<path d="M44.4806 43.7848L50.1041 38.8333V24.3809H44.4806V43.7848Z" fill="#868686" />
			<path d="M37.0606 11.3906H31.4528V41.9192H37.0606V11.3906Z" fill="#868686" />
			<path d="M38.076 50.1664L43.4808 44.6041V17.7891H38.076V50.1664Z" fill="#868686" />
		</g>
	</g>
	<defs>
		<clipPath id="clip0_83_1133">
			<rect width="199.26" height="75.7187" fill="white" transform="translate(0.585938 0.25)" />
		</clipPath>
	</defs>
</svg>