<svg xmlns="http://www.w3.org/2000/svg" width="191" height="51" viewBox="0 0 191 51" fill="none">
	<path
		d="M149.608 36.3053L156.323 44.0863H151.961L146.768 38.0887V44.0863H143.152V29.5769H146.768V34.8428L151.875 29.5769H156.15L149.607 36.3053H149.608ZM41.4277 33.4975C44.0666 33.4975 45.2721 32.2103 45.2721 30.2796C45.2721 28.3489 44.0666 27.0618 41.4277 27.0618H36.2058V33.4975H41.4277ZM41.5427 23.6094C46.0763 23.6094 49.0604 25.9781 49.0604 30.2786C49.0604 34.5791 46.0763 36.9489 41.5427 36.9489H36.2058V44.0863H32.4185V23.6094H41.5427ZM57.6085 41.0439C59.7313 41.0439 61.7115 39.4941 61.7115 36.8316C61.7115 34.1691 59.7313 32.6193 57.6085 32.6193C55.4857 32.6193 53.5055 34.1701 53.5055 36.8316C53.5055 39.4931 55.4857 41.0439 57.6085 41.0439ZM57.6085 29.1679C61.5109 29.1679 65.3838 31.7422 65.3838 36.8326C65.3838 41.923 61.5109 44.4963 57.6085 44.4963C53.7061 44.4963 49.8332 41.923 49.8332 36.8326C49.8332 31.7422 53.7061 29.1679 57.6085 29.1679ZM74.6143 41.0449C72.4335 41.0449 70.8269 39.436 70.8269 36.8326C70.8269 34.2293 72.4905 32.6203 74.6143 32.6203C75.9052 32.6203 77.0241 33.2348 77.9139 34.6092L81.013 32.7958C79.9797 30.5433 77.7419 29.1689 74.6438 29.1689C70.5978 29.1689 67.1556 32.2113 67.1556 36.8326C67.1556 41.4539 70.4267 44.4973 74.6438 44.4973C77.6848 44.4973 79.7221 43.0929 81.1566 40.6068L78.1725 38.9397C77.3112 40.1687 76.3939 41.0459 74.6152 41.0459M113.107 37.798C112.935 40.0214 112.504 40.5186 111.758 40.5186C111.249 40.5186 111.009 40.4615 110.66 40.3682L110.678 44.1224C110.678 44.1224 111.127 44.2627 111.959 44.2627C115.028 44.2627 116.177 42.2438 116.464 37.9443L116.808 32.883H120.882V44.0582H124.497V29.5779H113.709L113.106 37.798H113.107ZM106.439 34.9009C106.095 33.0875 104.747 31.9758 102.738 31.9758C100.845 31.9758 99.41 33.2629 98.8929 34.9009H106.439ZM102.852 29.1679C106.927 29.1679 109.796 32.1813 109.796 36.4226V37.7097H98.8349C99.0639 39.9332 100.613 41.3366 102.737 41.3366C104.659 41.3366 105.463 40.4885 106.353 39.3477L109.222 40.8103C107.787 43.2964 105.807 44.4963 102.679 44.4963C98.7198 44.4963 95.3631 41.4248 95.3631 36.8316C95.3631 32.2384 98.7208 29.1679 102.851 29.1679M137.596 34.9009C137.252 33.0875 135.903 31.9758 133.895 31.9758C132.002 31.9758 130.567 33.2629 130.05 34.9009H137.596ZM134.01 29.1679C138.085 29.1679 140.954 32.1813 140.954 36.4226V37.7097H129.993C130.222 39.9332 131.772 41.3366 133.895 41.3366C135.818 41.3366 136.621 40.4885 137.511 39.3477L140.38 40.8103C138.945 43.2964 136.965 44.4963 133.837 44.4963C129.878 44.4963 126.521 41.4248 126.521 36.8316C126.521 32.2384 129.878 29.1679 134.009 29.1679M82.2804 32.7948H86.5269V44.0863H90.1422V32.7948H94.3887V29.5769H82.2804V32.7948ZM163.5 41.0449C165.623 41.0449 167.603 39.4951 167.603 36.8326C167.603 34.1701 165.623 32.6203 163.5 32.6203C161.377 32.6203 159.397 34.1711 159.397 36.8326C159.397 39.4941 161.377 41.0449 163.5 41.0449ZM163.5 29.1679C167.403 29.1679 171.275 31.7422 171.275 36.8326C171.275 41.923 167.403 44.4973 163.5 44.4973C159.598 44.4973 155.725 41.923 155.725 36.8326C155.725 31.7422 159.598 29.1679 163.5 29.1679ZM185.66 29.5749L181.736 39.7367L177.812 29.5749H173.087V44.0582H176.523V34.8889L180.332 44.0582H183.138L186.947 34.8889V44.0582H190.383V29.5749H185.658H185.66Z"
		fill="#ffffff" />
	<path
		d="M24.0467 50.3684H4.05874C2.61458 50.3684 1.76514 49.0598 1.76514 47.9162C1.76514 47.2395 2.03555 46.6264 2.4735 46.1823L11.1962 37.3359L24.0467 50.3684Z"
		fill="#ffffff" />
	<path
		d="M4.05887 50.3692C2.54907 50.3692 0.663048 49.145 0.663048 46.7116V19.4592C0.663048 15.7768 0.477875 13.1864 3.07128 10.5563L12.8012 0.6875L30.0556 18.2142L2.47363 46.183C2.03568 46.6272 1.76527 47.2392 1.76527 47.9169C1.76527 49.0606 2.61471 50.3692 4.05887 50.3692Z"
		fill="#ffffff" />
</svg>