<svg xmlns="http://www.w3.org/2000/svg" width="132" height="48" viewBox="0 0 132 48" fill="none">
	<g clip-path="url(#clip0_83_1157)">
		<path
			d="M39.8488 20.2823C39.4092 21.3182 38.8605 22.0762 37.6729 22.2496C35.6005 22.5519 33.0257 22.0651 30.8994 22.3007L27.2284 25.9295C25.8556 24.8592 24.7693 23.3388 23.3877 22.2807H2.35994C1.77382 22.2395 1.1888 22.0362 0.767932 21.6127C0.771237 14.6652 0.765728 7.71317 0.767932 0.765625H39.8488C39.8301 7.2686 39.873 13.7782 39.8488 20.2823Z"
			fill="#868686" />
		<path
			d="M39.7388 32.4794C39.2882 33.6041 38.6029 34.241 37.3712 34.3632L16.5682 34.3677C15.2306 35.4458 14.0859 36.8284 12.8222 38.0221C11.5828 36.7917 10.3984 35.5069 9.0576 34.3877C6.89599 34.1976 4.49861 34.5644 2.36675 34.3632C1.78283 34.3077 1.18678 34.1332 0.768124 33.6997C0.760412 29.9675 0.770328 26.2309 0.768124 22.4987C1.22314 22.7677 1.7013 23.0344 2.24996 23.0589L23.3879 23.0567C24.7695 24.1136 25.8558 25.6352 27.2286 26.7055L30.8996 23.0767L37.8956 23.0278C38.8133 22.8288 39.3069 22.1586 39.7388 21.3906C39.7256 25.085 39.7476 28.785 39.7388 32.4794Z"
			fill="#868686" />
		<path
			d="M39.7289 42.396C39.6209 43.1918 38.8442 43.9764 38.0895 44.182C33.3774 44.6266 28.5275 44.1054 23.8253 44.451L20.2931 47.9976C18.9204 46.9273 17.834 45.4068 16.4525 44.3488L3.3517 44.351C2.24996 44.3688 0.953216 43.5474 0.774735 42.3993C0.419975 40.1142 1.02593 36.9655 0.768124 34.5882C1.20992 34.7049 1.42807 34.9739 1.92385 35.0317C4.14055 35.2884 6.79243 34.8216 9.0576 35.0539L12.8222 38.8005C14.1223 37.569 15.3045 36.1498 16.6783 35.0339H37.8152C38.7759 34.846 39.3874 34.1214 39.7388 33.2578C39.7311 36.302 39.7531 39.3507 39.7289 42.396Z"
			fill="#868686" />
		<path
			d="M53.4995 38.8019H50.7474V43.4599H49.7569V37.8038H53.4995C53.5436 37.8038 53.4665 38.5685 53.4995 38.6907C54.003 38.2339 54.5076 37.796 55.2138 37.7026C59.1459 37.1792 59.3618 43.1042 56.0864 43.4599C53.3607 43.7555 52.3261 40.9402 53.4984 38.8019H53.4995ZM55.2314 38.7174C53.483 39.0797 53.5656 42.9986 56.0621 42.5474C57.9054 42.2139 57.9516 38.1528 55.2314 38.7174Z"
			fill="#868686" />
		<path
			d="M80.5814 37.8024C80.8546 37.8602 81.725 37.7135 81.8869 37.818C82.0676 37.9347 82.9578 41.4479 83.2784 41.9069C83.5946 41.4401 84.4892 37.9347 84.6699 37.818C84.8253 37.718 85.6064 37.8569 85.8653 37.8024V43.4585C85.6824 43.4585 84.8748 43.5229 84.8748 43.2918V40.0208L83.6761 43.3929L82.7981 43.4429L81.5718 40.0208V43.2918C81.5718 43.5229 80.7642 43.4585 80.5814 43.4585V37.8024Z"
			fill="#868686" />
		<path
			d="M67.9213 42.4607C68.0546 42.4318 68.2727 42.5418 68.3741 42.3951C68.6617 41.975 68.7024 40.9047 68.9129 40.4101V37.8038H72.4351V42.4618C72.4351 42.484 72.8758 42.4396 72.8758 42.4618V44.6791H71.9944V43.4587H68.8016V44.6791H67.81C67.8144 43.9067 67.7538 43.212 67.9202 42.4607C67.5467 42.5407 67.7153 42.6685 67.4861 42.853C65.1471 44.7347 62.2958 42.3484 63.1342 39.5799C63.9925 36.7457 68.0821 37.1514 68.3587 40.1878C68.4523 41.2137 68.1141 41.5827 67.9202 42.4607H67.9213ZM65.3609 38.7163C63.5551 39.0041 63.6532 42.3673 65.3311 42.5741C68.1967 42.9253 67.8949 38.3128 65.3609 38.7163ZM71.4435 38.8007H69.9022C69.8405 40.02 69.8537 41.337 69.3513 42.4607H71.4424V38.8007H71.4435Z"
			fill="#868686" />
		<path
			d="M105.296 37.9133C106.439 38.1045 106.932 39.7749 105.902 40.4073C107.051 41.0975 106.875 42.7591 105.65 43.2604C105.566 43.2948 105.003 43.4571 104.965 43.4571H102.378V37.9122C103.264 38.0167 104.451 37.771 105.296 37.9122V37.9133ZM103.369 40.0206H105.185C105.578 40.0206 105.411 38.8002 105.075 38.8002H103.369V40.0206ZM103.479 42.5713C103.939 42.5635 105.108 42.588 105.456 42.2912C105.91 41.9055 105.626 41.0197 105.074 41.0197H103.478V42.5724L103.479 42.5713Z"
			fill="#868686" />
		<path
			d="M88.4786 37.7193C92.7875 36.9802 92.8514 44.1845 88.4786 43.4332C85.6956 42.9553 85.7143 38.1939 88.4786 37.7193ZM88.8091 38.7174C86.9472 39.0186 86.9835 42.1417 88.6086 42.5251C91.3861 43.1809 91.4026 38.2973 88.8091 38.7174Z"
			fill="#868686" />
		<path
			d="M61.4805 37.8033C62.8279 37.9945 63.4119 39.8295 62.4886 40.7597C62.3255 40.9242 61.4574 41.3521 61.2602 41.3521H59.5536V43.4594H58.5631V37.8033C59.4709 37.8956 60.6024 37.6789 61.4805 37.8033ZM59.5547 40.3541H61.3714C62.0699 40.3541 61.9245 38.8014 61.5918 38.8014H59.5547V40.3541Z"
			fill="#868686" />
		<path
			d="M98.6355 37.8022V40.1306C99.3594 40.0973 99.4927 38.9536 99.8651 38.4302C100.264 37.8689 100.839 37.7589 101.499 37.8011C101.47 37.9767 101.539 38.7614 101.499 38.8003C101.454 38.8447 100.939 38.7236 100.727 38.8536C100.461 39.0159 100.201 40.2996 99.7417 40.5185C100.196 41.0387 101.493 42.6825 101.611 43.2893C101.664 43.5638 100.84 43.4872 100.676 43.4549C100.104 43.3438 99.4828 41.1587 98.6366 41.0176V43.4571H97.6462V37.8011H98.6366L98.6355 37.8022Z"
			fill="#868686" />
		<path
			d="M95.9594 42.3148C96.1754 42.1181 96.4288 41.2445 96.4971 41.2378C96.6778 41.22 97.1614 41.5079 97.4203 41.4657C96.7262 44.7422 92.4438 44.0408 92.403 40.611C92.3656 37.5179 96.4596 36.4665 97.3785 39.4695C96.1104 40.0786 96.5753 39.5962 96.0531 39.0161C95.6884 38.6115 94.8566 38.5748 94.3696 38.7727C93.1621 39.2628 93.1853 42.3259 94.6219 42.5638C95.0031 42.6271 95.6631 42.5838 95.9583 42.3137L95.9594 42.3148Z"
			fill="#868686" />
		<path
			d="M108.103 37.8021V40.1306C109.488 39.9417 111.471 40.0439 111.301 41.96C111.241 42.6402 110.486 43.4571 109.809 43.4571H107.167C107.155 43.4571 107.002 43.3026 107.002 43.2904V37.9678C107.002 37.7244 107.897 37.8088 108.103 37.801V37.8021ZM108.103 42.5713C108.758 42.5969 110.474 42.7102 110.288 41.6555C110.251 41.4532 109.869 41.0186 109.699 41.0186H108.103V42.5713Z"
			fill="#868686" />
		<path
			d="M76.159 37.8223L78.3779 43.4583C78.1355 43.4083 77.4425 43.5406 77.2927 43.4439C77.2023 43.3861 76.9214 42.1046 76.7385 41.8645C76.6107 41.6967 75.098 41.8334 74.7609 41.8112C74.6331 42.0268 74.253 43.3972 74.1802 43.4439C74.0304 43.5406 73.3374 43.4083 73.095 43.4583L75.1751 37.8723L76.159 37.8223ZM76.2868 40.9076L75.6279 39.1349L75.0771 40.9076H76.2868Z"
			fill="#868686" />
		<path d="M112.616 37.8027H111.625V43.4588H112.616V37.8027Z" fill="#868686" />
		<path
			d="M88.6175 3.53711L89.4988 7.0859C89.6652 7.06923 89.6685 6.92141 89.7115 6.80249C90.0883 5.77219 90.1412 4.50739 90.6535 3.53711H92.3601V9.02646C92.3601 9.28097 91.3696 9.17761 91.1493 9.19317V5.4232L90.2161 9.08536C90.1125 9.2254 89.295 9.24763 89.1243 9.19984C88.9436 9.14983 88.3486 6.00226 88.2297 5.53435C88.1977 5.40653 88.2363 5.17536 88.0666 5.20092V9.19317H86.7456V3.53711H88.6175Z"
			fill="#868686" />
		<path
			d="M54.2707 3.53711V8.19511C54.2707 8.21734 54.7114 8.17288 54.7114 8.19511V10.4124H53.7199V9.19206H50.3067C50.3353 10.1935 50.4874 10.5591 49.3162 10.4124V8.19511C49.3162 8.16955 49.6313 8.25846 49.8142 8.0873C50.3882 7.5527 50.3023 4.37402 50.3067 3.53711H54.2696H54.2707ZM53.0588 4.53517H51.4073C51.6596 5.70995 51.2288 7.01699 51.0768 8.19511H53.0588V4.53517Z"
			fill="#868686" />
		<path
			d="M59.6649 3.53711C59.6649 3.72161 59.7288 4.53517 59.4996 4.53517H56.5822V5.75552H59.4445C59.4445 5.94002 59.5084 6.75359 59.2793 6.75359H56.5822V8.19511H59.775C59.775 8.37961 59.8389 9.19317 59.6098 9.19317H55.5367C55.5245 9.19317 55.3714 9.03868 55.3714 9.02646V3.53711H59.6649Z"
			fill="#868686" />
		<path
			d="M65.1692 3.53711V9.02646C65.1692 9.28098 64.1787 9.17761 63.9583 9.19317V4.53517H61.8672V9.02646C61.8672 9.28098 60.8768 9.17761 60.6564 9.19317V3.53711H65.1703H65.1692Z"
			fill="#868686" />
		<path
			d="M97.4248 3.53711V4.53517H94.4523V5.75552H97.2044V6.75359H94.4523V8.19511H97.6451C97.6451 8.37961 97.709 9.19317 97.4798 9.19317H93.2415V3.53711H97.4248Z"
			fill="#868686" />
		<path
			d="M99.626 3.53711V5.75441H101.827V3.53711H102.928V9.19317H101.827V6.75359H99.626V9.19317C99.4056 9.17761 98.4152 9.28098 98.4152 9.02646V3.53711H99.626Z"
			fill="#868686" />
		<path
			d="M86.1947 9.19328C84.4727 9.44224 85.0875 8.82095 84.5564 8.03961C84.4903 7.94292 82.3309 7.90847 82.2428 7.98515C82.1965 8.02628 81.9629 9.11548 81.8891 9.18105C81.7944 9.26552 80.8149 9.14882 80.5803 9.19328L82.6846 3.55166C83.0206 3.57056 83.837 3.42385 84.0518 3.64614L86.1947 9.19328ZM83.4415 5.09099C83.2564 4.90872 83.2564 5.14768 83.2123 5.24659C82.9887 5.74451 82.8675 6.44694 82.6725 6.97487L83.9934 6.86372C83.9097 6.60809 83.5175 5.16657 83.4415 5.08988V5.09099Z"
			fill="#868686" />
		<path
			d="M69.0043 3.55634L71.2232 9.1924C70.9246 9.14016 70.2295 9.29354 70.008 9.14238C69.8593 9.04124 69.596 7.99094 69.5045 7.96649C69.1453 8.03762 67.366 7.86424 67.247 8.03873C66.716 8.82007 67.3308 9.44247 65.6088 9.1924L67.7131 3.55078L69.0032 3.55634H69.0043ZM69.0219 6.86395C69.0858 6.79171 68.611 5.4102 68.5251 5.20125C68.481 5.09567 68.514 4.94674 68.3631 4.98008L67.701 6.97398L69.0219 6.86284V6.86395Z"
			fill="#868686" />
		<path
			d="M74.9118 3.53837C76.2735 3.76621 76.6536 5.7879 75.5717 6.64259C74.9482 7.13496 73.8607 7.06827 73.095 7.08605C73.0058 7.17719 73.2195 8.83989 73.0477 9.08996C72.8989 9.30558 72.0605 9.14775 71.7751 9.19332V3.53837C72.727 3.65063 74.0051 3.38722 74.9129 3.53837H74.9118ZM72.9849 6.0891C73.6481 6.09355 74.9768 6.23803 74.9548 5.25442C74.9338 4.35527 73.5853 4.53088 72.9849 4.53643V6.0891Z"
			fill="#868686" />
		<path
			d="M108.213 3.53711C108.454 4.96863 107.554 4.45626 106.561 4.53517V9.02646C106.561 9.28098 105.571 9.17761 105.351 9.19317V4.53517H103.699V3.53711H108.213Z"
			fill="#868686" />
		<path
			d="M81.021 3.53711C81.2622 4.96863 80.3621 4.45626 79.3695 4.53517V9.02646C79.3695 9.28098 78.379 9.17761 78.1586 9.19317V4.53517H76.5071V3.53711H81.021Z"
			fill="#868686" />
		<path
			d="M99.6117 22.6265C99.7219 22.6965 99.561 23.16 100.235 23.1722C100.91 23.1844 100.734 22.7399 101.021 22.6298C101.838 22.3175 101.408 23.2834 101.055 23.5512C100.248 24.1669 99.0388 23.6346 99.0751 22.6109C99.225 22.6332 99.5037 22.5576 99.6117 22.6254V22.6265Z"
			fill="#868686" />
		<path
			d="M99.1853 24.0518V27.4894C99.7483 27.1037 100.986 24.2585 101.3 24.0751C101.499 23.9584 102.204 24.1084 102.488 24.0518V29.5411C102.488 29.7845 101.594 29.7 101.388 29.7078V26.159L99.1644 29.6845C98.9506 29.7323 97.9756 29.7734 97.9756 29.5411V24.0518H99.1864H99.1853Z"
			fill="#868686" />
		<path
			d="M93.5709 24.0526V27.2135C93.5709 27.2424 93.4144 27.3624 93.4607 27.4902L93.7284 27.3735C94.1427 26.9634 95.4207 24.2315 95.684 24.077C95.8834 23.9603 96.5896 24.1104 96.8728 24.0537V29.7098H95.7721V26.2721L93.6326 29.6064C93.3395 29.8187 92.8261 29.6686 92.4691 29.7098V24.0537H93.5698L93.5709 24.0526Z"
			fill="#868686" />
		<path
			d="M72.5188 23.9718C74.9206 23.6195 76.1821 25.3333 75.8207 27.6306C75.4142 30.2203 71.5019 30.5815 70.6205 28.1541C70.0366 26.5481 70.6139 24.2497 72.5188 23.9707V23.9718ZM72.0297 28.3442C72.0958 28.422 72.488 28.6798 72.5926 28.7187C74.9526 29.5979 75.4803 24.4886 72.6257 25.0777C71.4501 25.32 71.394 27.5973 72.0297 28.3442Z"
			fill="#868686" />
		<path
			d="M86.4878 24.7561C87.7019 26.0809 87.3901 28.9162 85.6119 29.6197C83.0195 30.6444 81.0793 28.2649 81.8693 25.7386C82.4785 23.7891 85.1778 23.329 86.4878 24.7561ZM83.9615 25.0751C82.689 25.3685 82.4852 28.3038 84.0122 28.7472C86.5065 29.4719 86.8183 24.4171 83.9615 25.0751Z"
			fill="#868686" />
		<path
			d="M66.1596 24.0527V26.27H68.3609V24.0527H69.5717V29.5421C69.5717 29.7966 68.5812 29.6932 68.3609 29.7088V27.2692H66.1596V29.7088H65.059V24.0527H66.1596Z"
			fill="#868686" />
		<path
			d="M58.8936 24.0527C58.8936 24.2372 58.9575 25.0508 58.7284 25.0508H55.811V26.2711H58.5631C58.5631 26.4556 58.627 27.2692 58.3978 27.2692H55.811V28.7107H59.0038C59.0038 28.8952 59.0677 29.7088 58.8385 29.7088H54.7103V24.0527H58.8936Z"
			fill="#868686" />
		<path
			d="M80.8006 24.0527V29.7088H79.6999V25.0508H78.0484V28.7652C78.0484 28.7985 77.8204 29.3065 77.7708 29.3731C77.3819 29.8989 76.6195 29.6599 76.0664 29.7088C76.094 29.5443 76.0268 28.8608 76.0675 28.8219C76.1248 28.7663 76.9478 28.9541 76.9478 28.3217V24.0527H80.8006Z"
			fill="#868686" />
		<path
			d="M60.8536 24.0761C61.0354 24.1839 61.7185 25.7177 61.8121 25.7177C62.1625 25.7177 62.7144 24.1728 62.8742 24.0717C63.0527 23.9583 63.9947 24.115 64.2877 24.055L62.558 26.7714L64.3968 29.7089C64.0993 29.6488 63.3028 29.8067 63.0978 29.6866C62.9359 29.591 62.0887 27.8272 61.9201 27.8272C61.6083 28.0395 60.8878 29.601 60.7423 29.6866C60.5264 29.8122 59.6505 29.6444 59.3343 29.71C59.1988 29.5855 60.9825 27.1348 61.0916 26.7725L59.4445 24.0561C59.7585 24.1195 60.6421 23.9539 60.8536 24.0784V24.0761Z"
			fill="#868686" />
		<path
			d="M53.9402 24.0527V25.0508H52.2887V29.7088H51.1881V25.0508H49.5917C49.3625 25.0508 49.4264 24.2372 49.4264 24.0527H53.9402Z"
			fill="#868686" />
		<path
			d="M91.9194 24.0527C91.9194 24.2372 91.9833 25.0508 91.7541 25.0508H89.2774V29.5421C89.2774 29.7966 88.2869 29.6932 88.0666 29.7088V24.0527H91.9194Z"
			fill="#868686" />
		<path
			d="M80.5814 13.7402L81.6269 17.5113L82.5623 13.7402H84.324V19.3963H83.2234V15.5152L82.1602 19.4019C81.8836 19.3574 81.2347 19.5052 81.0739 19.2885L80.1407 15.6263V19.3963H78.8197V13.7402H80.5814Z"
			fill="#868686" />
		<path
			d="M64.5202 14.2814C64.5588 14.3237 65.3972 14.4404 65.6407 14.5393C67.4079 15.2595 67.3473 17.928 65.4666 18.6416C65.2738 18.7149 64.55 18.8127 64.5191 18.8505C64.4475 18.9383 64.5522 19.3484 64.5081 19.3951C64.4662 19.4396 63.337 19.4396 63.2962 19.3951C63.2554 19.3507 63.3568 18.9783 63.2819 18.855C63.2158 18.746 62.6021 18.7405 62.4137 18.676C60.4945 18.0169 60.3149 15.2895 62.1636 14.5393C62.4071 14.4404 63.2444 14.3237 63.2841 14.2814C63.3403 14.2203 63.2455 13.898 63.3987 13.7868C63.5165 13.7013 64.2878 13.7013 64.4057 13.7868C64.5588 13.898 64.464 14.2203 64.5202 14.2814ZM63.2973 15.2917C61.5687 15.2784 61.5533 17.9391 63.2973 17.7313V15.2917ZM64.5081 15.2917V17.7313C66.196 17.8902 66.1618 15.3217 64.5081 15.2917Z"
			fill="#868686" />
		<path
			d="M51.0779 17.2881L53.1866 13.7571L54.3798 13.7393V19.3954H53.2792V15.9577L51.1396 19.292C50.8344 19.5132 50.2439 19.3476 49.866 19.3954V13.906C49.866 13.6615 51.0768 13.6615 51.0768 13.906V17.2881H51.0779Z"
			fill="#868686" />
		<path
			d="M97.7541 13.7402V17.4002L99.9785 13.7647L101.167 13.7413V19.3974H100.067V15.8486L97.9293 19.2952C97.6307 19.5152 97.027 19.3485 96.6546 19.3974V13.7413H97.7552L97.7541 13.7402Z"
			fill="#868686" />
		<path
			d="M92.1397 13.7385V18.3965H94.341V13.7385H95.4416V18.3965C95.4416 18.4265 95.9925 18.352 95.9925 18.5632V20.6149H95.0009V19.3945H90.9278V13.9052C90.9278 13.6507 91.9183 13.754 92.1386 13.7385H92.1397Z"
			fill="#868686" />
		<path
			d="M104.446 13.659C108.139 13.3189 108.57 19.085 105.173 19.494C101.192 19.9741 100.917 13.9846 104.446 13.659ZM104.33 14.7638C102.699 15.0983 102.805 18.8216 104.957 18.5026C106.723 18.2414 106.615 14.2958 104.33 14.7638Z"
			fill="#868686" />
		<path
			d="M73.1094 16.5964C73.1094 18.1958 71.8225 19.4917 70.2349 19.4917C68.6473 19.4917 67.3605 18.1958 67.3605 16.5964C67.3605 14.9971 68.6473 13.7012 70.2349 13.7012C71.8225 13.7012 73.1094 14.9971 73.1094 16.5964ZM69.8724 14.7648C68.1504 15.1216 68.2705 18.9082 70.5919 18.4825C72.3183 18.1658 72.1894 14.2847 69.8724 14.7648Z"
			fill="#868686" />
		<path
			d="M109.534 15.9577H111.625V13.7404H112.836V19.3965H111.625V16.9569H109.534V19.3965H108.323V13.7404C108.543 13.756 109.534 13.6526 109.534 13.9071V15.9588V15.9577Z"
			fill="#868686" />
		<path
			d="M56.6924 15.9577H58.7835V13.7404H59.9943V19.3965H58.7835V16.9569H56.6924V19.3965H55.4816V13.7404C55.7019 13.756 56.6924 13.6526 56.6924 13.9071V15.9588V15.9577Z"
			fill="#868686" />
		<path
			d="M115.038 13.7385V15.9558H117.24V13.7385C117.46 13.754 118.45 13.6507 118.45 13.9052V19.3945H117.24V16.9549H115.038V19.3945H113.938V13.7385H115.038Z"
			fill="#868686" />
		<path
			d="M120.763 13.7394V15.9567H122.469C122.641 15.9567 123.44 16.2323 123.62 16.3501C124.326 16.8147 124.468 17.8728 124.088 18.5852C123.954 18.8364 123.4 19.3943 123.129 19.3943H119.552V13.7383H120.763V13.7394ZM120.763 18.3974H122.58C123.031 18.3974 123.146 17.067 122.469 17.067H120.763V18.3974Z"
			fill="#868686" />
		<path
			d="M88.1624 13.7552L90.3791 19.3946C89.0802 19.5558 89.0317 19.2946 88.6604 18.1687C88.299 18.2409 86.5252 18.0664 86.404 18.2421C85.8895 18.9823 86.5263 19.6569 84.7646 19.3946L86.8657 13.9164C87.0948 13.5952 87.79 13.7697 88.1624 13.7552ZM88.1767 17.1773L87.5719 15.2934C87.3813 15.4624 86.783 17.1073 86.8557 17.1773H88.1756H88.1767Z"
			fill="#868686" />
		<path
			d="M74.9669 17.289V19.3963H73.7561V13.7402H76.4532C76.4906 13.7402 77.0536 13.9025 77.1384 13.937C78.3503 14.4327 78.4473 16.2899 77.3577 16.9789C77.2729 17.0323 76.7121 17.2879 76.6746 17.2879H74.968L74.9669 17.289ZM74.9669 14.7383V16.291C75.6709 16.2398 76.8178 16.5755 76.8487 15.5719C76.885 14.3993 75.6775 15.0817 74.9669 14.7383Z"
			fill="#868686" />
		<path
			d="M129.237 15.5125C129.408 15.2013 130.014 13.9253 130.23 13.7942C130.504 13.6286 131.207 13.7964 131.55 13.7386C131.673 13.8464 129.9 16.2038 129.896 16.5583L131.66 19.3936C131.344 19.3291 130.467 19.4969 130.252 19.3702C130.144 19.3069 129.285 17.6186 129.182 17.6186C128.808 17.6164 128.258 19.1724 127.919 19.3391C127.579 19.5058 126.97 19.3391 126.597 19.3925L128.45 16.4727C128.341 16.1337 126.686 13.8598 126.817 13.7386C127.152 13.7964 127.877 13.6297 128.139 13.792C128.401 13.9542 128.849 15.2913 129.236 15.5125H129.237Z"
			fill="#868686" />
		<path d="M126.047 13.7402H124.836V19.3963H126.047V13.7402Z" fill="#868686" />
	</g>
	<defs>
		<clipPath id="clip0_83_1157">
			<rect width="131" height="47.2313" fill="white" transform="translate(0.660156 0.765625)" />
		</clipPath>
	</defs>
</svg>