<svg xmlns="http://www.w3.org/2000/svg" width="106" height="21" viewBox="0 0 106 21" fill="none">
	<g clip-path="url(#clip0_83_1111)">
		<path
			d="M33.5358 4.68977V9.97849H36.9092C39.1999 9.97849 40.4437 9.31628 40.4437 7.30281C40.4437 5.28933 39.2357 4.68977 36.945 4.68977H33.5447H33.5358ZM29.1513 0.850746H37.8308C40.0857 0.850746 41.9022 1.41452 43.2086 2.53311C44.5418 3.66066 45.2129 5.01192 45.2129 7.23122C45.2129 9.45051 44.5418 10.9986 43.2444 12.1262C41.938 13.2537 39.9694 13.8175 37.8398 13.8175H33.5447V20.896H29.1602V0.850746H29.1513ZM65.7039 13.2806C65.4802 15.822 64.5138 16.9764 62.9747 18.4798C61.3999 19.9922 59.5029 20.887 56.7738 20.887C53.812 20.887 51.4408 20.2427 49.6422 18.2829C47.8437 16.3232 46.8773 13.7549 46.8773 10.5423C46.8773 7.32965 47.781 5.56675 49.6064 3.54432C51.4408 1.5219 53.9104 0.841797 56.9617 0.841797C59.3687 0.841797 61.2388 1.61139 62.8763 2.96265C64.5138 4.34076 65.4175 6.2379 65.5786 8.35876H61.373C61.1493 7.23122 60.6304 6.2737 59.834 5.65623C59.0376 5.03877 58.0354 4.40341 56.8454 4.40341C55.5926 4.40341 54.5636 4.75241 53.7314 5.43251C52.8993 6.13947 52.3803 6.90906 52.0313 7.90237C51.6734 8.99412 51.5839 9.73687 51.5839 10.8555C51.5839 12.7526 51.9061 13.9696 52.8724 15.2225C53.8388 16.4753 55.1542 17.0838 56.7917 17.0838C59.0108 17.0838 60.9972 15.6431 61.2925 13.2269H65.7307V13.2627L65.7039 13.2806ZM85.479 0.850746L80.3965 10.3275L86.1948 20.896H81.0766L76.9068 12.9405H76.0925L71.887 20.896H66.8045L72.6386 10.3275L67.4577 0.850746H72.576L76.3252 8.00976H76.7457L80.4949 0.850746H85.479ZM100.762 14.0949C100.762 12.9674 99.7242 11.7414 98.0062 11.7414H93.5053V16.8869H98.042C99.9569 16.8869 100.762 15.4641 100.762 14.0949ZM93.5053 8.34981H98.3015C100.476 8.34981 102.221 8.51984 103.581 9.64738C104.905 10.7749 105.585 11.9383 105.585 14.1576C105.585 16.3769 104.905 18.0771 103.545 19.2047C102.185 20.3322 100.368 20.896 98.0688 20.896H88.9687V0.850746H104.153V4.69872H93.4964V8.34981H93.5053Z"
			fill="#ffffff" />
		<path d="M21.3934 0.851562H13.6444V20.8968H21.3934V0.851562Z" fill="#ffffff" />
		<path d="M11.4253 0.851562H5.88647V20.8968H11.4253V0.851562Z" fill="#ffffff" />
		<path d="M4.22214 0.851562H0.347656V20.8968H4.22214V0.851562Z" fill="#ffffff" />
		<path
			d="M23.8451 2.04175H24.033C23.9972 2.15808 23.9436 2.26547 23.872 2.3639C23.7735 2.42655 23.6841 2.48919 23.5588 2.48919C23.4067 2.48919 23.2546 2.43549 23.1472 2.32811C23.0398 2.20283 22.9861 2.04175 22.9861 1.88067C22.9861 1.6838 23.0488 1.55852 23.1472 1.43323C23.2456 1.30795 23.3977 1.27215 23.5588 1.27215C23.6751 1.27215 23.7825 1.299 23.872 1.37059C23.9704 1.43323 24.033 1.53167 24.033 1.65695H23.872C23.872 1.59431 23.8093 1.53167 23.7735 1.49587C23.7109 1.46008 23.6483 1.43323 23.5856 1.43323C23.4604 1.43323 23.3619 1.46903 23.2993 1.55852C23.2367 1.62116 23.2009 1.75539 23.2009 1.88067C23.2009 2.00595 23.2367 2.10439 23.2993 2.20283C23.3619 2.30126 23.4604 2.32811 23.5856 2.32811C23.6841 2.32811 23.7467 2.29231 23.7735 2.26547C23.8093 2.16703 23.8362 2.10439 23.8362 2.04175H23.8451ZM22.6998 1.84488C22.6998 2.06859 22.7624 2.26547 22.9235 2.42655C23.0756 2.57867 23.2814 2.65921 23.4962 2.65026C23.7109 2.65026 23.9167 2.57867 24.0688 2.42655C24.2209 2.27442 24.3015 2.05965 24.2925 1.84488C24.2925 1.63011 24.2209 1.42428 24.0688 1.26321C23.9167 1.11108 23.7109 1.03054 23.4962 1.03949C23.2814 1.03949 23.0756 1.11108 22.9235 1.26321C22.7893 1.42428 22.7087 1.63011 22.6998 1.84488ZM23.4962 2.84714C23.2098 2.84714 22.9861 2.7487 22.7982 2.56078C22.6103 2.37285 22.5029 2.12229 22.5119 1.85382C22.5119 1.56746 22.6103 1.34374 22.7982 1.14687C22.9861 0.949999 23.2098 0.851562 23.4962 0.851562C23.7467 0.851562 23.9972 0.949999 24.1941 1.13792C24.382 1.3348 24.4804 1.55852 24.4804 1.84488C24.4804 2.13124 24.382 2.35496 24.1941 2.55183C24.0151 2.73975 23.7556 2.84714 23.4962 2.83819V2.84714Z"
			fill="#ffffff" />
	</g>
	<defs>
		<clipPath id="clip0_83_1111">
			<rect width="105.238" height="20.0452" fill="white" transform="translate(0.347656 0.851562)" />
		</clipPath>
	</defs>
</svg>