<svg xmlns="http://www.w3.org/2000/svg" width="198" height="21" viewBox="0 0 198 21" fill="none">
	<g clip-path="url(#clip0_83_1100)">
		<path fill-rule="evenodd" clip-rule="evenodd"
			d="M132.008 17.5293L138.381 5.07122H138.496L145.542 17.5293H152.788L143.439 1.42188H137.318L128.863 17.5293H132.008Z"
			fill="#ffffff" />
		<path fill-rule="evenodd" clip-rule="evenodd"
			d="M31.7986 10.4957L41.7996 10.3804C41.6839 12.6245 40.3904 13.8829 39.7174 14.4072C38.0558 15.6656 35.7002 15.781 34.5749 15.781C32.9133 15.781 31.4831 15.5608 30.0213 14.7218C29.0959 14.187 28.0232 13.2957 27.4974 12.5406L27.0452 11.9009L23.7852 13.6942C24.7421 14.7533 26.2249 15.8229 27.8024 16.578C30.2211 17.721 32.4401 18.0042 35.1323 18.0042C37.9927 18.0042 42.4622 17.6162 45.6907 15.2881C47.9412 13.6627 48.9718 11.45 48.9718 9.48903C48.9718 7.52803 47.9306 5.28389 45.6907 3.68992C42.9144 1.67649 38.8445 0.984375 35.2269 0.984375C32.8713 0.984375 30.7049 1.20459 28.5175 1.99109C26.6877 2.6098 25.2574 3.44873 23.7957 4.67567L27.0557 6.43742L27.8445 5.62995C28.486 4.92734 29.5902 4.28766 30.5682 3.88917C31.8827 3.33338 33.2604 3.16559 34.6906 3.16559C37.5826 3.16559 39.2442 4.05695 40.1696 4.92734C40.7901 5.48314 41.5998 6.55277 41.7996 8.1782L31.7986 8.04187V10.5062V10.4957Z"
			fill="#ffffff" />
		<path fill-rule="evenodd" clip-rule="evenodd"
			d="M164.829 2.94023C166.459 2.94023 168.31 3.27581 169.74 5.03756C170.886 6.44277 171.086 8.05771 171.086 9.49437C171.086 10.931 170.886 12.5145 169.74 13.9512C168.31 15.7129 166.459 16.0485 164.829 16.0485C163.199 16.0485 161.348 15.7129 159.918 13.9512C158.772 12.525 158.572 10.931 158.572 9.49437C158.572 8.05771 158.772 6.44277 159.918 5.03756C161.348 3.27581 163.199 2.94023 164.829 2.94023ZM164.829 17.999C167.858 17.999 172.106 17.3279 174.935 15.283C177.186 13.689 178.248 11.4239 178.248 9.48389C178.248 7.54386 177.186 5.27875 174.935 3.68479C172.096 1.63989 167.858 0.96875 164.829 0.96875C161.8 0.96875 157.552 1.63989 154.691 3.68479C152.441 5.27875 151.41 7.54386 151.41 9.48389C151.41 11.4239 152.451 13.689 154.691 15.283C157.552 17.3279 161.821 17.999 164.829 17.999Z"
			fill="#ffffff" />
		<path fill-rule="evenodd" clip-rule="evenodd"
			d="M109.157 5.49179C109.778 5.29254 110.503 5.18767 111.239 5.18767H111.997V13.556H111.239C110.514 13.556 109.778 13.4406 109.157 13.2519C108.6 13.0841 108.095 12.8639 107.695 12.5283C106.938 11.9411 106.318 10.9553 106.318 9.36135C106.318 7.76738 106.938 6.8131 107.695 6.22585C108.084 5.89028 108.589 5.67006 109.157 5.50227V5.49179ZM120.893 15.5904C124.511 15.3702 126.425 14.5313 127.435 13.9125C129.348 12.7695 130.211 11.1441 130.211 9.35086C130.211 7.00186 128.665 5.59665 127.435 4.81016C125.72 3.71955 123.312 3.26862 120.893 3.1323C120.252 3.07986 119.6 3.07986 118.958 3.07986H118.254V0.867188H111.765V3.07986H111.092C110.451 3.07986 109.799 3.07986 109.157 3.1323C106.717 3.26862 104.299 3.71955 102.616 4.81016C101.386 5.59665 99.8397 6.99137 99.8397 9.35086C99.8397 11.1441 100.713 12.7695 102.616 13.9125C103.594 14.5313 105.508 15.3702 109.157 15.5904C109.746 15.6219 110.388 15.6428 111.092 15.6428H111.765V17.9918H118.254V15.6428H118.958C119.663 15.6428 120.304 15.6114 120.893 15.5904ZM120.893 5.49179C121.451 5.65957 121.956 5.87979 122.355 6.21536C123.112 6.80261 123.733 7.78836 123.733 9.35086C123.733 10.9134 123.112 11.9306 122.355 12.5178C121.966 12.8534 121.461 13.0736 120.893 13.2414C120.252 13.4406 119.547 13.5455 118.79 13.5455H118.064V5.17719H118.79C119.547 5.17719 120.252 5.29254 120.893 5.4813V5.49179Z"
			fill="#ffffff" />
		<path fill-rule="evenodd" clip-rule="evenodd"
			d="M85.536 2.94023C87.1345 2.94023 89.0169 3.27581 90.4472 5.03756C91.6039 6.44277 91.7932 8.05771 91.7932 9.49437C91.7932 10.931 91.5934 12.5145 90.4472 13.9512C89.0169 15.7129 87.1345 16.0485 85.536 16.0485C83.9375 16.0485 82.0236 15.7129 80.5934 13.9512C79.4366 12.525 79.2683 10.931 79.2683 9.49437C79.2683 8.05771 79.4366 6.44277 80.5934 5.03756C82.0236 3.27581 83.906 2.94023 85.536 2.94023ZM85.536 17.999C88.5437 17.999 92.8133 17.3279 95.6422 15.283C97.8612 13.689 98.9023 11.4239 98.9023 9.48389C98.9023 7.54386 97.8612 5.27875 95.6422 3.68479C92.8028 1.63989 88.5332 0.96875 85.536 0.96875C82.5389 0.96875 78.2377 1.63989 75.3983 3.68479C73.1478 5.27875 72.1172 7.54386 72.1172 9.48389C72.1172 11.4239 73.1583 13.689 75.3983 15.283C78.2377 17.3279 82.5073 17.999 85.536 17.999Z"
			fill="#ffffff" />
		<path fill-rule="evenodd" clip-rule="evenodd"
			d="M61.0572 11.6122H62.2666C65.3794 11.6122 67.5458 11.2766 69.0917 10.3853C71.0267 9.24222 71.4789 7.66923 71.4789 6.44229C71.4789 5.21536 71.0267 3.67383 69.0917 2.58322C67.5458 1.71283 65.4741 1.42969 61.9932 1.42969H50.8984V17.5267H57.387V11.6227H61.0677L61.0572 11.6122ZM61.0572 3.88356C61.8459 3.91502 62.8555 4.05134 63.5811 4.50227C64.5591 5.12098 64.7274 5.95991 64.7274 6.46327C64.7274 6.96663 64.5907 7.86847 63.518 8.50816C62.7924 8.98006 61.888 9.12687 61.0467 9.1793H57.366V3.86258H60.3736C60.5735 3.86258 60.7943 3.86258 61.0467 3.89404L61.0572 3.88356Z"
			fill="#ffffff" />
		<path fill-rule="evenodd" clip-rule="evenodd"
			d="M10.8505 5.20755L14.079 10.692H7.62197L10.6822 5.09219H10.7663L10.8505 5.20755ZM15.4041 12.8733L18.1804 17.5188H25.4261L15.5933 1.42188H9.58852L0.660156 17.5293H3.88867L6.44414 12.8838H15.4041V12.8733Z"
			fill="#ffffff" />
		<path fill-rule="evenodd" clip-rule="evenodd"
			d="M176.965 3.86526H183.927V17.5293H190.415V3.86526H197.409V1.42188H176.965V3.86526Z" fill="#ffffff" />
	</g>
	<defs>
		<clipPath id="clip0_83_1100">
			<rect width="196.75" height="20.0078" fill="white" transform="translate(0.660156 0.867188)" />
		</clipPath>
	</defs>
</svg>