<svg xmlns="http://www.w3.org/2000/svg" width="151" height="30" viewBox="0 0 151 30" fill="none">
	<g clip-path="url(#clip0_83_1118)">
		<path
			d="M28.3829 0V4.60821H8.59137C6.66641 4.60821 5.01242 6.89607 4.88006 8.8366C4.70601 11.3698 5.09059 14.2011 4.88215 16.7153C4.69038 19.0289 2.74457 20.8439 0.589285 20.7801C0.816487 16.7321 0.286002 12.2986 0.589285 8.29432C0.866513 4.62613 3.43347 1.30191 6.73936 0.358528L8.39543 0H28.3829Z"
			fill="#ffffff" />
		<path
			d="M0.588074 25.1387L20.4609 25.142C27.4479 23.8861 21.721 13.4787 25.6126 10.0581C26.3921 9.37238 27.3874 9.05195 28.3828 8.9668V21.9971C28.3828 22.2223 28.1649 23.0043 28.0909 23.2766C27.1259 26.8495 24.1472 29.4197 20.6954 29.7514L0.588074 29.748V25.1398V25.1387Z"
			fill="#ffffff" />
		<path
			d="M43.0612 5.02734C43.0654 5.10353 43.0883 5.17748 43.1373 5.23462C44.7652 7.12361 46.1191 9.79129 47.747 11.603C47.8043 11.6668 47.8408 11.7542 47.9398 11.7318L52.7809 5.02734H57.5823V24.8024H52.7413V13.1547L47.9315 19.1847L43.0602 13.1547V24.8024H38.2587L38.142 24.6769V5.02734H43.0612Z"
			fill="#ffffff" />
		<path
			d="M120.199 5.02734V16.005L127.812 5.02734H131.989V24.8035H127.187L127.07 24.6769V13.6589L119.379 24.8035H115.358V5.02734H120.199Z"
			fill="#ffffff" />
		<path
			d="M99.7439 5.02734V12.4018H106.927V5.02734H111.767V24.8035H106.927V17.1355L106.809 17.01H99.7439V24.6769L99.6261 24.8035H94.8246V5.02734H99.7439Z"
			fill="#ffffff" />
		<path
			d="M59.3791 24.8041L66.9101 5.02344L71.3937 5.03912L78.8194 24.8052H73.8231L72.8382 22.0345L65.2436 22.0502L64.2983 24.8052H59.3791V24.8041ZM66.8736 17.7646H71.2457L69.0216 11.8153L66.8736 17.7646Z"
			fill="#ffffff" />
		<path d="M150.492 5.02734V9.63667H144.792V24.8035H139.952V9.63667H134.252V5.02734H150.492Z" fill="#ffffff" />
		<path d="M92.2483 5.02734V9.63667H85.5344V24.6769L85.4166 24.8035H80.6152V5.02734H92.2483Z" fill="#ffffff" />
		<path
			d="M20.4192 9.2168V20.8645H17.0623V14.9981L14.5245 18.1811L11.9878 14.9981V20.8645H8.62976V9.2168H11.7918L14.5245 12.9018L17.179 9.2168H20.4192Z"
			fill="#ffffff" />
	</g>
	<defs>
		<clipPath id="clip0_83_1118">
			<rect width="150" height="29.75" fill="white" transform="translate(0.492188)" />
		</clipPath>
	</defs>
</svg>