<svg width="36" height="36" viewBox="0 0 36 36" fill="none" xmlns="http://www.w3.org/2000/svg">
	<rect x="0.615809" y="0.615809" width="34.7684" height="34.7684" rx="17.3842" stroke="#B3B4B4"
		stroke-width="1.23162" />
	<path fill-rule="evenodd" clip-rule="evenodd"
		d="M12.7071 11.2929C12.3166 10.9024 11.6834 10.9024 11.2929 11.2929C10.9024 11.6834 10.9024 12.3166 11.2929 12.7071L17.0858 18.5L11.565 24.0208C11.1744 24.4113 11.1744 25.0445 11.565 25.435C11.9555 25.8256 12.5887 25.8256 12.9792 25.435L18.5 19.9142L24.0208 25.435C24.4113 25.8256 25.0445 25.8256 25.435 25.435C25.8256 25.0445 25.8256 24.4113 25.435 24.0208L19.9142 18.5L25.7071 12.7071C26.0976 12.3166 26.0976 11.6834 25.7071 11.2929C25.3166 10.9024 24.6834 10.9024 24.2929 11.2929L18.5 17.0858L12.7071 11.2929Z"
		fill="#5EDBFF" />
</svg>