<svg width="59" height="59" viewBox="0 0 59 59" fill="none" xmlns="http://www.w3.org/2000/svg">
<rect x="1" y="1" width="57" height="57" rx="28.5" stroke="#B3B4B4" stroke-width="2"/>
<path d="M19.5 40C18.8125 40 18.2242 39.7554 17.735 39.2663C17.2458 38.7771 17.0008 38.1883 17 37.5V22.5C17 21.8125 17.245 21.2242 17.735 20.735C18.225 20.2458 18.8133 20.0008 19.5 20H39.5C40.1875 20 40.7763 20.245 41.2663 20.735C41.7563 21.225 42.0008 21.8133 42 22.5V37.5C42 38.1875 41.7554 38.7763 41.2663 39.2663C40.7771 39.7563 40.1883 40.0008 39.5 40H19.5ZM29.5 31.25L19.5 25V37.5H39.5V25L29.5 31.25ZM29.5 28.75L39.5 22.5H19.5L29.5 28.75ZM19.5 25V22.5V37.5V25Z" fill="#5EDBFF"/>
</svg>
