<svg width="52" height="60" viewBox="0 0 52 60" fill="none" xmlns="http://www.w3.org/2000/svg">
	<path
		d="M0.265194 34.6294L5.11664 24.3418C5.10469 24.0342 5.09297 23.7265 5.09297 23.4159C5.09297 10.4846 15.5788 0 28.5109 0C32.7677 0 36.7574 1.13602 40.1967 3.11988C40.1887 3.18094 40.1769 3.2618 40.1612 3.36152C40.1217 3.62074 40.0586 4.00535 39.9718 4.49637C39.7954 5.47945 39.5162 6.88957 39.109 8.57379C38.4336 11.3653 37.4002 14.9111 35.9062 18.5082C34.8926 18.1494 33.8011 17.9522 32.6709 17.9522C30.6693 17.9522 28.7938 18.5634 27.2496 19.6087C25.7025 20.6539 24.4748 22.1311 23.7382 23.8734C23.2461 25.0341 22.9751 26.314 22.976 27.648C22.975 29.6497 23.5873 31.5243 24.6326 33.0703C25.6777 34.6165 27.1548 35.8431 28.8962 36.5808C30.0578 37.0718 31.3377 37.3439 32.6708 37.3439C34.6726 37.3439 36.5481 36.7316 38.0932 35.6863C39.6394 34.6411 40.867 33.165 41.6046 31.4227C42.0956 30.2611 42.3668 28.9821 42.3659 27.648C42.3677 25.6464 41.7545 23.7708 40.7093 22.2258C40.2309 21.5177 39.6621 20.8778 39.0182 20.3197C40.7093 16.339 41.8432 12.4529 42.5808 9.41391C42.9742 7.78488 43.2533 6.40055 43.4406 5.37609C48.6253 9.67137 51.9287 16.1576 51.9287 23.415C51.9287 30.6892 48.6145 37.1873 43.4121 41.4834V49.7594C43.4121 50.567 42.9309 51.2978 42.1874 51.6123L22.7926 59.8399C22.1714 60.1032 21.4595 60.0391 20.8975 59.6674C20.3334 59.2937 19.9942 58.6636 19.9942 57.9901V50.9753C19.9942 49.866 19.0939 48.9628 17.9846 48.9628H8.05113C6.9389 48.9628 6.03961 48.0615 6.03961 46.9522V40.9037C6.03961 40.1336 5.59887 39.4305 4.90664 39.0934L1.20586 37.2968C0.213985 36.8134 -0.206135 35.6252 0.265194 34.6294Z"
		fill="white" />
	<path
		d="M35.0548 33.2914C34.3232 33.601 33.5214 33.7715 32.6714 33.7725C31.3975 33.7715 30.2281 33.388 29.2489 32.7273C28.2696 32.0666 27.4907 31.128 27.0272 30.0313C26.7186 29.2996 26.5479 28.498 26.5479 27.6481C26.5479 26.3731 26.9316 25.2047 27.5922 24.2254C28.2529 23.2463 29.1916 22.4683 30.2881 22.0037C31.0197 21.6952 31.8214 21.5236 32.6713 21.5236C33.9453 21.5246 35.1149 21.9081 36.0951 22.5688C37.0731 23.2295 37.8522 24.1682 38.3157 25.2646C38.6242 25.9963 38.7948 26.7969 38.7959 27.648C38.7948 28.923 38.4113 30.0914 37.7516 31.0705C37.0909 32.0489 36.1523 32.8279 35.0548 33.2914Z"
		fill="white" />
</svg>