<svg width="60" height="60" viewBox="0 0 60 60" fill="none" xmlns="http://www.w3.org/2000/svg">
	<path
		d="M2.64328 19.9797L5.87516 18.1131C7.11457 19.5084 8.76525 20.5295 10.662 20.9159V24.6094H14.1771V20.9159C16.0738 20.5294 17.7245 19.5084 18.9639 18.1131L22.1958 19.9797L23.9533 16.9344L20.7196 15.0667C21.0113 14.1929 21.2072 13.2752 21.2072 12.3047C21.2072 11.3341 21.0113 10.4164 20.7196 9.5427L23.9533 7.67496L22.1958 4.62973L18.9639 6.49629C17.7245 5.10094 16.0738 4.08 14.1771 3.69352V0H10.662V3.69352C8.76525 4.08 7.11457 5.10094 5.87516 6.49629L2.64328 4.62973L0.885742 7.67496L4.11949 9.5427C3.82774 10.4164 3.63184 11.3341 3.63184 12.3047C3.63184 13.2752 3.82774 14.1929 4.11949 15.0667L0.885742 16.9344L2.64328 19.9797ZM10.662 10.5469H14.1771V14.0625H10.662V10.5469Z"
		fill="white" />
	<path
		d="M52.8433 56.4844V7.03125H42.2981V56.4844H35.2679V21.0938H24.7227V56.4844H17.6925V35.1563H7.14732V56.4844H0V60C0.730784 60 60.864 60 59.9906 60V56.4844H52.8433Z"
		fill="white" />
</svg>