<svg width="53" height="60" viewBox="0 0 53 60" fill="none" xmlns="http://www.w3.org/2000/svg">
	<path
		d="M32.3411 29.4155H51.5192L52.3012 27.4228C52.7723 26.2215 53 24.9723 53 23.687C53 11.0008 42.9597 0.634209 30.3892 0V13.6243L34.8449 18.0652C35.2075 17.9595 35.5835 17.8849 35.981 17.8849C38.2257 17.8849 40.0523 19.7062 40.0523 21.944C40.0523 24.1891 38.2257 26.0161 35.981 26.0161C33.7291 26.0161 31.8965 24.1891 31.8965 21.944C31.8965 20.9891 32.2447 20.1205 32.8026 19.4262L28.3325 14.9709C28.1072 14.7451 27.9795 14.44 27.9795 14.1216V0C25.4757 0.124996 23.0768 0.633066 20.8333 1.47516V9.32871C22.3322 9.9282 23.3985 11.3853 23.3985 13.0921C23.3985 15.3372 21.5719 17.1642 19.3272 17.1642C17.0753 17.1642 15.2427 15.3372 15.2427 13.0921C15.2427 11.1642 16.6054 9.55225 18.4236 9.14131V2.52857C11.2087 6.19239 6.11697 13.4044 5.46514 21.854H14.98C15.4981 20.2022 17.0319 18.9927 18.8621 18.9927C21.1068 18.9927 22.9334 20.8124 22.9334 23.0514C22.9334 25.2966 21.1068 27.1225 18.8621 27.1225C17.0331 27.1225 15.4994 25.9104 14.9812 24.2564H5.37229V25.9932L0.0828731 39.339C-0.0628698 39.7113 -0.0147297 40.1317 0.214245 40.4561C0.432286 40.7804 0.805857 40.9846 1.20341 40.9846H4.54095V46.6796C4.54095 48.6016 5.37229 50.4263 6.8411 51.6755C8.29897 52.9248 10.2268 53.4773 12.1425 53.1904L14.7102 52.8059C15.0596 52.7445 15.4078 52.8408 15.6729 53.0809C15.9391 53.3104 16.0957 53.6348 16.0957 53.9818V58.7988C16.0957 59.1232 16.2163 59.4235 16.4451 59.6516C16.6741 59.869 16.9753 60 17.3006 60H17.3115L22.3527 59.9519V50.5668C20.696 50.0504 19.4826 48.5199 19.4826 46.6965C19.4826 44.4574 21.3092 42.6375 23.5539 42.6375C25.8058 42.6375 27.6385 44.4574 27.6385 46.6965C27.6385 48.5188 26.4215 50.0478 24.7625 50.5655V59.9291L32.9135 59.8499V43.9517C31.2568 43.4351 30.0434 41.9059 30.0434 40.0813C30.0434 37.8435 31.8689 36.0223 34.1147 36.0223C36.3666 36.0223 38.1981 37.8435 38.1981 40.0813C38.1981 41.9048 36.9823 43.4339 35.3232 43.9517V59.827L43.5176 59.7478C44.1814 59.7478 44.7116 59.2071 44.7116 58.5466V55.976C44.7116 49.8736 45.8442 43.9047 48.06 38.223L50.5758 31.818H32.3399C31.8206 33.4721 30.2868 34.6855 28.459 34.6855C26.2143 34.6855 24.3877 32.8583 24.3877 30.6132C24.3877 28.3753 26.2143 26.5543 28.459 26.5543C30.288 26.5543 31.823 27.7638 32.3411 29.4155Z"
		fill="white" />
</svg>