<svg width="60" height="60" viewBox="0 0 60 60" fill="none" xmlns="http://www.w3.org/2000/svg">
	<path fill-rule="evenodd" clip-rule="evenodd"
		d="M5.29406 37.0588V45.8823C5.29406 47.254 6.79043 48.1012 7.96676 47.3955L11.4705 45.2933L14.9743 47.3955C16.1505 48.1014 17.647 47.254 17.647 45.8823V37.0588H21.1765C22.1511 37.0588 22.9412 37.8489 22.9412 38.8235V58.2353C22.9412 59.2099 22.1511 60 21.1765 60H1.76473C0.790078 60 0 59.2099 0 58.2353V38.8235C0 37.8489 0.790078 37.0588 1.76473 37.0588H5.29406ZM8.82352 37.0588H14.1176V42.7655L12.3784 41.722C11.8195 41.3866 11.1213 41.3866 10.5626 41.722L8.8234 42.7655L8.82352 37.0588ZM48.7334 30.5085C48.095 31.0071 47.1991 31.0071 46.5608 30.5085C46.4625 30.4316 46.2915 30.2936 46.0583 30.0981C45.6775 29.7788 45.2551 29.4098 44.8015 28.9949C43.5083 27.812 42.2159 26.4914 41.0055 25.0605C37.4524 20.8601 35.2941 16.5769 35.2941 12.353C35.2941 5.53055 40.8247 0 47.647 0C54.4693 0 60 5.53055 60 12.353C60 16.5769 57.8416 20.8601 54.2885 25.0605C53.0782 26.4914 51.7857 27.812 50.4926 28.9949C50.0389 29.4098 49.6166 29.7788 49.2357 30.0981C49.0025 30.2936 48.8317 30.4316 48.7334 30.5085ZM47.647 18.5295C51.0582 18.5295 53.8235 15.7642 53.8235 12.353C53.8235 8.94176 51.0582 6.17648 47.647 6.17648C44.2358 6.17648 41.4705 8.94176 41.4705 12.353C41.4705 15.7642 44.2359 18.5295 47.647 18.5295ZM47.647 15C46.1851 15 45 13.8149 45 12.353C45 10.8911 46.1851 9.70594 47.647 9.70594C49.1089 9.70594 50.2941 10.8911 50.2941 12.353C50.2941 13.8149 49.1089 15 47.647 15ZM40.5882 29.1259V30.874C40.5882 31.3734 40.1971 31.7646 39.7146 31.7646H35.2978C32.3748 31.7646 30 34.14 30 37.0587C30 39.983 32.3687 42.3527 35.2911 42.3527H49.4296C54.2987 42.3527 58.25 46.3089 58.25 51.1763C58.25 56.0476 54.2932 59.9998 49.4225 59.9998H29.1187C28.6303 59.9998 28.2354 59.601 28.2354 59.1091V57.3609C28.2354 56.8615 28.6309 56.4703 29.1187 56.4703H49.4225C52.345 56.4703 54.7206 54.0974 54.7206 51.1763C54.7206 48.2571 52.3485 45.8822 49.4295 45.8822H35.2911C30.4192 45.8822 26.4707 41.9318 26.4707 37.0587C26.4707 32.1908 30.4254 28.2352 35.2979 28.2352H39.7147C40.1906 28.2353 40.5882 28.6341 40.5882 29.1259Z"
		fill="white" />
</svg>