<svg width="22" height="22" viewBox="0 0 22 22" fill="none" xmlns="http://www.w3.org/2000/svg">
	<path
		d="M10.2418 0.8817C10.6408 0.417717 11.3592 0.417717 11.7582 0.881701L15.5716 5.31618C15.673 5.4341 15.8005 5.52675 15.944 5.58675L21.3398 7.84316C21.9044 8.07925 22.1264 8.76251 21.8084 9.28536L18.7694 14.2824C18.6886 14.4153 18.6399 14.5652 18.6271 14.7202L18.1486 20.5492C18.0985 21.1591 17.5173 21.5814 16.9218 21.4406L11.2302 20.0944C11.0788 20.0586 10.9212 20.0586 10.7698 20.0944L5.07823 21.4406C4.48271 21.5814 3.9015 21.1591 3.85142 20.5492L3.37286 14.7202C3.36013 14.5652 3.31143 14.4153 3.23061 14.2824L0.19157 9.28535C-0.126408 8.76251 0.0955975 8.07925 0.660169 7.84316L6.05601 5.58675C6.19949 5.52675 6.32701 5.4341 6.42841 5.31618L10.2418 0.8817Z"
		fill="#31C9F5" />
</svg>