<svg width="37" height="36" viewBox="0 0 37 36" fill="none" xmlns="http://www.w3.org/2000/svg">
	<rect x="1.30038" y="0.615809" width="34.7684" height="34.7684" rx="17.3842" stroke="#B3B4B4"
		stroke-width="1.23162" />
	<path
		d="M25.0245 20.7166L22.9079 20.475C22.659 20.4457 22.4067 20.4733 22.17 20.5556C21.9333 20.6378 21.7183 20.7727 21.5412 20.95L20.0079 22.4833C17.6424 21.2799 15.7196 19.3571 14.5162 16.9916L16.0579 15.45C16.4162 15.0916 16.5912 14.5916 16.5329 14.0833L16.2912 11.9833C16.2441 11.5767 16.0491 11.2017 15.7433 10.9296C15.4374 10.6576 15.0422 10.5076 14.6329 10.5083H13.1912C12.2495 10.5083 11.4662 11.2916 11.5245 12.2333C11.9662 19.35 17.6579 25.0333 24.7662 25.475C25.7079 25.5333 26.4912 24.75 26.4912 23.8083V22.3666C26.4995 21.525 25.8662 20.8166 25.0245 20.7166Z"
		fill="#5EDBFF" />
</svg>