<svg width="59" height="59" viewBox="0 0 59 59" fill="none" xmlns="http://www.w3.org/2000/svg">
	<rect x="1" y="1" width="57" height="57" rx="28.5" stroke="#B3B4B4" stroke-width="2" />
	<path fill-rule="evenodd" clip-rule="evenodd"
		d="M39.5211 19.1468C39.83 19.0168 40.1681 18.972 40.5002 19.017C40.8323 19.062 41.1463 19.1952 41.4095 19.4027C41.6726 19.6102 41.8754 19.8845 41.9966 20.1969C42.1178 20.5094 42.153 20.8486 42.0986 21.1793L39.2636 38.3756C38.9886 40.0343 37.1686 40.9856 35.6474 40.1593C34.3749 39.4681 32.4849 38.4031 30.7849 37.2918C29.9349 36.7356 27.3311 34.9543 27.6511 33.6868C27.9261 32.6031 32.3011 28.5306 34.8011 26.1093C35.7824 25.1581 35.3349 24.6093 34.1761 25.4843C31.2986 27.6568 26.6786 30.9606 25.1511 31.8906C23.8036 32.7106 23.1011 32.8506 22.2611 32.7106C20.7286 32.4556 19.3074 32.0606 18.1474 31.5793C16.5799 30.9293 16.6561 28.7743 18.1461 28.1468L39.5211 19.1468Z"
		fill="#5EDBFF" />
</svg>